<svg width="231" height="164" viewBox="0 0 231 164" fill="none" xmlns="http://www.w3.org/2000/svg">
<path d="M149.3 54.1424L149.646 61.3147L129.252 61.4364L129.147 59.4343L129.008 53.6972C129.008 53.6972 135.755 52.2076 139.164 52.2749C142.572 52.3422 149.3 54.1424 149.3 54.1424Z" fill="#8B755E"/>
<path d="M149.548 35.5024C150.617 34.731 151.793 34.1243 153.039 33.7021C154.207 33.2857 153.772 33.4298 155.546 32.991C156.924 32.6249 158.323 32.3446 159.736 32.1517L174.49 32.6386L175.22 25.1685C175.22 25.1685 175.988 18.0635 175.734 14.4309C175.48 10.7984 173.513 0 173.513 0L170.52 1.45431L170.285 3.58451C170.076 5.54065 169.644 7.46583 168.996 9.32165C168.398 11.079 167.618 12.7679 166.67 14.3605C164.398 18.0443 160.364 23.3298 156.705 25.9084C154.531 27.446 152.63 28.7498 151.443 29.557C150.808 29.9926 150.126 30.3899 149.443 30.7614L149.548 35.5024Z" fill="#D3AD82"/>
<path d="M149.646 61.3147L129.255 61.4108L129.709 79.4166C129.883 80.7566 129.929 82.1103 129.849 83.4592C129.833 83.6679 129.804 83.8754 129.763 84.0807L149.418 83.4144L149.646 61.3147Z" fill="#AC8A65"/>
<path d="M155.949 104.62L169.127 83.8532L150.484 83.4784L150.722 110.281L155.949 104.62Z" fill="#F4DCBE"/>
<path d="M175.572 83.3759L177.369 83.4208L176.369 80.3584L175.28 75.7776L174.563 69.3134L169.127 83.8532L175.572 83.3759Z" fill="#DF164E"/>
<path d="M171.615 117.061H171.618V116.975L171.615 117.061Z" fill="#610C0D"/>
<path d="M174.646 117.104L175.572 83.3887L169.127 83.866L155.949 104.633L150.719 110.297L144.87 116.703L152.338 116.783C153.556 116.327 154.831 116.043 156.127 115.938C158.979 115.705 161.849 116.037 164.575 116.915L171.618 116.992L174.646 117.104Z" fill="#FF3333"/>
<path d="M174.646 117.104L188.327 117.402L189.676 114.791C187.179 109.691 185.519 106.171 185.519 106.171L183.964 103.128L180.869 96.0034L178.673 89.411L177.819 84.8046L177.369 83.4208L175.572 83.3759L174.646 117.104Z" fill="#CB204C"/>
<path d="M174.646 117.104L171.618 116.975L171.618 120.598C174.271 122.654 176.425 125.291 177.918 128.312L188.327 117.402L174.646 117.104Z" fill="#F9514E"/>
<path d="M137.764 48.8474C140.084 47.9266 142.451 47.131 144.854 46.4641C145.07 46.4032 145.263 46.3552 145.4 46.3264H145.419C146.132 46.1529 146.86 46.0457 147.593 46.006C147.964 45.9868 148.386 45.9484 148.818 45.9676H148.907H148.97C153.363 46.1982 160.313 48.0818 160.313 48.0818L159.723 32.1421C158.231 32.2753 156.752 32.5335 155.302 32.9141C153.398 33.4106 151.23 34.1954 149.548 35.4767C147.326 37.1777 142.325 41.1402 138.285 44.7663C133.705 49.251 132.432 51.2627 132.432 51.2627C132.432 51.2627 133.683 50.6797 135.444 49.8916C136.155 49.5713 136.894 49.251 137.758 48.8378L137.764 48.8474Z" fill="#66CC99"/>
<path d="M132.105 157.347L135.365 157.517L134.54 135.981L131.398 135.987L132.105 157.347Z" fill="#C5000A"/>
<path d="M135.266 123.43L134.54 135.99L144.711 136.048L143.87 131.262C143.87 131.262 143.654 120.073 152.338 116.78L144.87 116.703L135.266 123.43Z" fill="#CB204C"/>
<path d="M164.575 116.899C167.112 117.735 169.497 118.985 171.634 120.598V116.976L164.575 116.899Z" fill="#8B241C"/>
<path d="M141.414 157.827C143.264 156.738 145.457 155.435 147.863 153.983L144.711 136.045L134.54 135.987L135.365 157.526L141.414 157.827Z" fill="#DF164E"/>
<path d="M148.602 158.199L147.863 153.977C145.457 155.435 143.264 156.738 141.414 157.821L148.602 158.199Z" fill="#C7A47C"/>
<path d="M177.918 128.312C179.092 130.717 179.83 133.314 180.098 135.981L200.467 135.875C197.157 129.77 193.739 123.02 191.006 117.498L188.327 117.402L177.918 128.312Z" fill="#EACDAC"/>
<path d="M180.089 141.282C178.41 157.337 177.715 157.437 177.715 157.437L177.461 158.942L211.591 161.719L211.457 149.339C207.687 146.254 204.202 142.631 201.936 138.556C201.451 137.682 200.959 136.785 200.464 135.875L180.095 135.981C180.277 137.743 180.275 139.52 180.089 141.282Z" fill="#DFC4A3"/>
<path d="M230.852 163.289V160.88C230.852 160.88 220.347 156.613 211.457 149.348L211.591 161.729L230.852 163.289Z" fill="#C7A074"/>
<path d="M190.993 117.498C190.53 116.556 190.083 115.649 189.664 114.791L188.315 117.402L190.993 117.498Z" fill="#EACDAC"/>
<path d="M138.285 44.776C146.178 38.1419 149.542 35.5056 149.542 35.5056L149.431 30.7646C149.234 30.8736 149.04 30.9889 148.837 31.085L145.083 33.007C143.782 33.6677 142.428 34.2174 141.036 34.6503L138.659 35.3838L133.026 37.1649L128.671 38.6096L129.059 51.5958L132.426 51.2755C132.426 51.2755 133.705 49.251 138.285 44.776Z" fill="#D3AD82"/>
<path d="M160.313 48.0914C160.313 48.0914 163.649 48.5623 168.381 52.4415C169.941 53.7595 171.378 55.2188 172.675 56.8012L172.268 53.2776L172.062 51.0705L171.957 49.6226C171.856 48.2171 171.945 46.8043 172.221 45.423L172.383 44.5998L173.335 40.8871C173.408 40.5924 173.468 40.2977 173.513 39.9966L174.29 34.7368L174.496 32.6418L159.732 32.1549L160.313 48.0914Z" fill="#5CA9AB"/>
<path d="M144.87 116.703L150.719 110.297L150.484 83.4944L149.405 83.4304L129.763 84.0967C129.338 86.3582 127.519 89.7153 127.519 89.7153L126.193 91.6885C126.072 91.8711 125.958 92.0537 125.85 92.2395L125.101 93.5208L124.276 94.7125C124.378 95.1486 124.456 95.5903 124.507 96.0354C124.533 96.5447 124.413 97.0506 124.162 97.4929L125.561 99.1138C125.812 99.4041 126.079 99.68 126.361 99.9403L127.805 101.276C128.908 102.306 129.746 103.593 130.246 105.024C130.69 106.459 130.703 114.954 130.703 114.954L131.02 124.92L135.266 123.43L144.87 116.703Z" fill="#DFC4A3"/>
<path d="M131.033 124.913L131.398 135.987L134.54 135.981L135.266 123.417L131.033 124.913Z" fill="#FF2E00"/>
<path d="M149.405 83.4144L150.484 83.4784L169.127 83.8532L174.563 69.3134L174.56 69.2749L173.608 62.9772L149.646 61.3147L149.405 83.4144Z" fill="#DFC4A3"/>
<path d="M168.381 52.4415C163.649 48.5623 160.313 48.0914 160.313 48.0914L156.974 47.1688L153.861 46.3232L148.974 45.9772H148.91L149.65 61.3243L173.611 62.9868L173.535 62.4711L172.849 58.3068L172.678 56.83C171.382 55.2375 169.943 53.7685 168.381 52.4415Z" fill="#8B755E"/>
<path d="M148.907 45.9676H148.818C148.409 45.9868 148.24 45.9388 146.666 46.0765L145.555 46.2687C145.316 46.309 145.081 46.3734 144.854 46.4609C142.839 47.0151 137.805 48.8282 137.764 48.8442L132.439 51.2691L129.071 51.5894L129.043 52.7298L129.065 53.6908C129.579 53.5979 135.485 52.5568 138.342 52.2749C141.331 51.977 149.307 54.1425 149.307 54.1425L148.907 45.9676Z" fill="#2A2829"/>
<path d="M61.7063 5.25984L57.5424 7.00245L54.5908 11.3013L53.2293 14.4277L52.2518 17.8521L51.4965 21.8146L51.5822 24.6559L51.9503 28.6889L64.4134 29.0573L64.5404 19.5466L64.4769 19.4666L63.1122 16.622L62.5695 15.3375L62.7695 13.486L63.3312 11.9676L64.2675 11.0611L64.6578 10.7023L64.734 4.89787L61.7063 5.25984Z" fill="#D9B68C"/>
<path d="M64.6578 10.7023L65.5338 9.89825L67.6189 9.4658L69.7929 9.74769L72.0049 10.651L72.8872 11.0867L74.985 12.3039L75.1183 11.2244L75.0676 9.9527L73.6806 8.15244L70.2911 5.75636L66.232 4.72169L64.734 4.89787L64.6578 10.7023Z" fill="#D9B68C"/>
<path d="M64.3214 31.3284L78.219 30.8351L73.2712 27.6094L69.9738 24.8898L67.9807 23.1183L65.7496 21.097L64.5404 19.5466L64.4134 29.0573L64.3214 31.3284Z" fill="#D9B68C"/>
<path d="M65.2545 57.2657L64.3214 31.3284L64.4134 29.0573L51.9503 28.6889L51.963 28.833L53.5975 38.1483L54.6829 44.5165L55.0955 52.6561L53.8926 61.9009L53.1278 65.4758L57.59 62.4807L65.2545 57.2657Z" fill="#CDA87C"/>
<path d="M65.2545 57.2657C64.9117 57.6661 68.3742 54.1969 72.7095 51.993C73.9934 51.3932 75.3343 50.9263 76.7115 50.5996H76.7401C79.7678 49.7923 83.2303 49.5553 86.8706 51.2402C90.7901 53.0597 98.1086 57.0062 101.787 59.0403L102.311 43.1935L99.5495 41.7264L94.8429 39.2342L89.6888 36.6203L84.357 33.8719L78.5745 31.0594L78.2317 30.8351L64.3309 31.3284L65.2545 57.2657Z" fill="#D9B68C"/>
<path d="M80.812 60.7125L73.8615 66.062L81.7228 64.7326L90.1077 66.6802L98.8798 62.3494L99.54 62.3461L101.714 61.3467L101.765 59.7835L97.7373 58.9058L80.812 60.7125Z" fill="#2A2829"/>
<path d="M68.0378 73.2438L73.8615 66.062L80.812 60.7125L76.7179 50.5964L75.3722 50.8398C74.4366 51.0087 73.5473 51.3767 72.7635 51.9194C72.5953 52.0379 72.4461 52.1308 72.4016 52.1596L70.9132 52.97C70.1284 53.397 69.3847 53.8968 68.6916 54.4628L65.2608 57.2625L57.5963 62.4775L68.0378 73.2438Z" fill="#6FB09E"/>
<path d="M61.7983 85.7496L68.0378 73.2566L57.59 62.4935L53.1278 65.4886L50.1826 79.2629C49.2939 81.5532 48.3577 87.4249 47.3262 93.3126L54.7083 101.372L60.5542 88.514L61.7983 85.7496Z" fill="#5CA9AB"/>
<path d="M47.3167 93.2966C47.0755 94.658 46.8248 96.0258 46.5709 97.3552L45.3205 106.385C45.3205 106.385 42.6165 112.116 38.9159 119.548L44.2604 123.962L54.686 101.356L47.3167 93.2966Z" fill="#4E99AB"/>
<path d="M44.2731 123.962C46.9094 125.937 49.6653 127.744 52.5248 129.372C54.0894 125.84 56.5424 122.782 59.6402 120.502L45.9933 120.182L44.2731 123.962Z" fill="#B89269"/>
<path d="M89.9554 86.3005L65.1688 86.2429L64.8324 117.635C67.9726 116.382 71.3557 115.873 74.7216 116.146C78.9236 116.508 81.6816 118.35 83.4969 120.63H89.8158L89.9554 86.3005Z" fill="#C59D73"/>
<path d="M61.7983 85.7496L60.5542 88.514L46.0218 120.192L59.6688 120.512C61.2653 119.328 63.0074 118.359 64.8514 117.629L65.1878 86.2365L61.7983 85.7496Z" fill="#C3A27A"/>
<path d="M89.8158 120.624H83.4969C87.1022 125.163 86.988 131.464 86.988 131.464L86.4484 134.53C86.7912 134.472 87.1181 134.411 87.4006 134.35C88.4637 133.998 89.3048 133.738 89.9395 133.549L89.8158 120.624Z" fill="#B89269"/>
<path d="M90.1077 66.6802L89.9554 86.3005L103.596 85.8393L103.142 85.2915L102.196 83.7539L101.793 82.8378L101.397 81.0119L101.152 78.2762L101.714 61.3467L99.54 62.3461L98.8798 62.3494L90.1077 66.6802Z" fill="#AC8A65"/>
<path d="M30.3596 136.128C29.873 137.025 29.3895 137.906 28.9092 138.771C27.408 141.392 25.5621 143.796 23.4219 145.917L30.2708 145.825L30.3596 136.128Z" fill="#8CB6A3"/>
<path d="M30.3596 136.128L30.2612 145.825L32.9176 146.062C35.482 141.41 37.1323 138.024 37.1323 138.024L38.0844 136.131L39.7189 132.685L44.2636 123.962L38.9191 119.548C36.3643 124.712 33.3207 130.676 30.3596 136.128Z" fill="#4E99AB"/>
<path d="M30.2612 145.825L23.4219 145.917C14.0595 155.386 0 161.092 0 161.092V163.5L22.5333 161.668C25.5737 157.549 28.284 153.66 30.2327 150.777C31.2038 149.118 32.1083 147.519 32.9208 146.049L30.2612 145.825Z" fill="#66CC99"/>
<path d="M37.1323 138.024C37.1323 138.024 35.482 141.41 32.9176 146.062C32.1052 147.532 32.1909 147.42 30.2295 150.79C30.0645 151.072 29.7979 151.321 29.617 151.578C29.3694 151.937 29.2012 152.298 28.9822 152.625C28.4713 153.352 28.0301 154.028 27.4906 154.771C26.1196 156.693 24.6343 158.766 22.5396 161.668L37.51 160.448L37.1323 138.024Z" fill="#CB204C"/>
<path d="M37.1323 138.024L37.5005 160.448L53.3912 159.166L53.1373 157.664C53.1373 157.664 52.4422 157.562 50.7602 141.51C50.6935 140.869 50.6586 140.228 50.6364 139.604L37.1323 138.024Z" fill="#F9514E"/>
<path d="M82.2465 158.414L98.7465 157.558L99.34 139.568L85.5503 139.601L82.2465 158.414Z" fill="#FF2E3F"/>
<path d="M80.812 60.7125L97.7373 58.9058L101.765 59.7835L101.79 59.0435C100.229 58.2523 89.5174 52.2365 86.2929 50.7726C82.8526 49.2125 81.4784 49.6482 76.7306 50.5964L80.812 60.7125Z" fill="#4E99AB"/>
<path d="M61.8015 85.7496L65.1688 86.2397L89.9554 86.3005L90.1077 66.6802L81.7228 64.7326L73.8615 66.062L68.0378 73.2438L61.8015 85.7496Z" fill="#C3A27A"/>
<path d="M89.8158 120.624L89.9554 133.549C90.6278 133.338 91.3125 133.167 92.0056 133.04L99.6447 130.34L100.149 115.169L99.997 109.403L100.114 108.349L100.302 107.388L100.759 106.446L101.041 105.834L101.482 105.078L101.904 104.495L102.891 103.438L103.279 103.092L106.916 99.6904C107.139 99.4847 107.29 99.2116 107.347 98.912C107.461 98.3299 107.427 97.7283 107.249 97.163C107.02 96.817 105.694 95.0328 106.855 94.2352L107.404 93.4984L107.604 92.4605L107.43 91.1792L106.417 89.7697L105.656 88.434L104.237 86.6433L103.602 85.8713L89.9554 86.3326L89.8158 120.624Z" fill="#C3A27A"/>
<path d="M89.9554 133.549C89.3016 133.738 88.4669 133.998 87.4164 134.35C87.098 134.453 86.7737 134.537 86.4453 134.6L85.5693 139.597L99.3591 139.565L99.6764 130.327L92.0056 133.04C91.3125 133.167 90.6278 133.338 89.9554 133.549Z" fill="#CB204C"/>
<path d="M37.1323 138.024L50.6364 139.591C50.5245 136.085 51.1745 132.597 52.5406 129.372C46.7359 125.596 44.289 123.962 44.289 123.962L39.6046 132.982L37.1323 138.024Z" fill="#FF2E00"/>
</svg>
