<?xml version="1.0" encoding="UTF-8" standalone="no"?>
<!-- Created with Inkscape (http://www.inkscape.org/) -->

<svg
   version="1.1"
   id="svg543"
   width="909"
   height="388"
   viewBox="0 0 909 388"
   sodipodi:docname="logo_mm.svg"
   inkscape:version="1.2.2 (b0a8486541, 2022-12-01)"
   xmlns:inkscape="http://www.inkscape.org/namespaces/inkscape"
   xmlns:sodipodi="http://sodipodi.sourceforge.net/DTD/sodipodi-0.dtd"
   xmlns="http://www.w3.org/2000/svg"
   xmlns:svg="http://www.w3.org/2000/svg">
  <defs
     id="defs547" />
  <sodipodi:namedview
     id="namedview545"
     pagecolor="#505050"
     bordercolor="#eeeeee"
     borderopacity="1"
     inkscape:showpageshadow="0"
     inkscape:pageopacity="0"
     inkscape:pagecheckerboard="0"
     inkscape:deskcolor="#505050"
     showgrid="false"
     inkscape:zoom="1.3432343"
     inkscape:cx="441.09952"
     inkscape:cy="249.77027"
     inkscape:window-width="2044"
     inkscape:window-height="1108"
     inkscape:window-x="1920"
     inkscape:window-y="0"
     inkscape:window-maximized="1"
     inkscape:current-layer="g549" />
  <g
     inkscape:groupmode="layer"
     inkscape:label="Image"
     id="g549">
    <path
       style="fill:#ffffff"
       d="M 63.052089,184.6809 V 48.671215 l 47.692891,0.25969 47.6929,0.2597 22.0488,75.749995 c 12.12685,41.6625 22.39005,75.75 22.80711,75.75 0.41707,0 0.7583,-34.20436 0.7583,-76.0097 V 48.671215 l 47.68003,0.25969 47.68002,0.2597 25.56145,87.776815 c 19.30452,66.29081 25.90988,87.70906 26.98489,87.5 0.97173,-0.18897 9.53334,-28.12345 26.97925,-88.02682 l 25.5558,-87.749995 h 47.77928 47.77928 v 135.999995 136 h -30.5 -30.5 v -98.5 c 0,-78.13708 -0.25841,-98.49855 -1.25,-98.49298 -0.77887,0.004 -12.97048,37.03506 -32.34684,98.25 l -31.09685,98.24298 -23.40315,0.26122 -23.40316,0.26122 -31.08145,-98.20504 c -17.0948,-54.01277 -31.6073,-98.38032 -32.25,-98.59455 -0.88613,-0.29538 -1.16855,23.43656 -1.16855,98.19382 v 98.58333 l -38.25,-0.011 -38.25,-0.011 -31.07912,-98.18204 c -17.09351,-54.00013 -31.60601,-98.35768 -32.25,-98.57234 -0.88923,-0.2964 -1.17088,23.32359 -1.17088,98.19305 v 98.58333 h -29.500001 -29.5 z M 540.05209,316.6906 v -4 h 158 158 v 4 4 h -158 -158 z m 91.67233,-57.37764 c -11.71914,-3.2835 -18.70473,-12.46858 -19.4645,-25.59312 -0.31223,-5.39372 0.0567,-9.42744 1.23214,-13.47074 5.48654,-18.87302 31.27854,-24.93523 45.51567,-10.6981 5.78408,5.78408 8.04436,11.86431 8.04436,21.6396 0,8.72263 -2.01609,14.99053 -6.51077,20.24155 -6.13339,7.16548 -18.90448,10.65811 -28.8169,7.88081 z m 16.19191,-11.32693 c 4.49316,-3.28067 6.59035,-8.83709 6.5279,-17.29543 -0.0602,-8.14852 -1.4114,-11.8268 -5.87769,-16 -2.2714,-2.12234 -3.63314,-2.5 -9.01445,-2.5 -5.37228,0 -6.75203,0.38122 -9.04831,2.5 -4.01599,3.70554 -5.64956,8.48924 -5.61833,16.45252 0.0407,10.38209 2.38966,15.31472 8.66664,18.19945 3.8779,1.78218 10.98469,1.11102 14.36424,-1.35654 z m 101.47564,11.80805 c -6.32321,-1.62899 -10.81943,-4.75166 -13.83988,-9.61194 l -3,-4.82737 -0.32114,-21.33208 -0.32114,-21.33209 h 6.57114 6.57114 v 20.48422 20.48423 l 2.75,3.07752 c 5.03092,5.63009 16.23688,4.66777 19.11144,-1.64121 0.72988,-1.60191 1.13856,-9.6609 1.13856,-22.45181 V 202.6906 h 6.5 6.5 l -0.006,19.25 c -0.006,20.22819 -0.60028,24.39128 -4.25488,29.79933 -4.30983,6.37768 -18.13376,10.44123 -27.39966,8.05415 z M 541.05209,230.6906 v -28 h 9.35771 9.3577 l 5.28459,18.5 c 2.90652,10.175 5.5884,18.5 5.95973,18.5 0.5627,0 3.20486,-8.72283 10.22292,-33.75 l 0.91136,-3.25 h 9.45299 9.453 v 28 28 h -6 -6 v -20.66667 c 0,-11.36666 -0.26896,-20.3977 -0.59769,-20.06897 -0.32873,0.32873 -3.38553,9.51623 -6.79289,20.41666 l -6.19521,19.81898 -4.60986,0.30082 -4.60986,0.30082 -1.53819,-4.80082 c -0.84601,-2.64045 -3.63601,-11.55082 -6.20002,-19.80082 -2.564,-8.25 -5.06557,-15.4275 -5.55905,-15.95 -0.53134,-0.56259 -0.89723,7.49144 -0.89723,19.75 v 20.7 h -5.5 -5.5 z m 151,5.5 v -22.5 h -9 -9 v -5.5 -5.5 h 24 24 v 5.5 5.5 h -9 -9 v 22.5 22.5 h -6 -6 z m 12.22179,-69.90984 c -6.10412,-1.99154 -10.67617,-5.83161 -13.23389,-11.11517 -1.21927,-2.51866 -1.98771,-4.80851 -1.70765,-5.08857 0.28005,-0.28006 2.98296,-0.76451 6.00645,-1.07656 5.49327,-0.56696 5.49847,-0.56483 7.15053,2.91662 2.14781,4.52617 5.61204,6.28606 12.24391,6.22014 6.24417,-0.0621 9.56886,-2.50776 9.56886,-7.03897 0,-4.00943 -2.78678,-5.76378 -14.0724,-8.85894 -11.64453,-3.1936 -15.46938,-5.27849 -17.74037,-9.67009 -2.12108,-4.10171 -1.47795,-12.00598 1.27767,-15.70311 6.2838,-8.43078 23.62946,-10.42403 33.47342,-3.84654 3.0608,2.04515 8.87863,10.99543 7.78865,11.98225 -0.26233,0.23751 -2.87444,0.65195 -5.80469,0.92098 -4.73676,0.43489 -5.4173,0.25503 -6.13524,-1.62152 -1.93694,-5.06276 -8.51205,-7.59911 -14.54125,-5.60929 -5.62316,1.85581 -7.46319,7.72609 -3.24579,10.35508 1.2375,0.77142 6.31729,2.38363 11.28843,3.58269 16.09939,3.88324 20.95252,8.41679 20.18124,18.85231 -0.48655,6.58301 -2.84029,9.96527 -9.12718,13.11549 -5.92102,2.96689 -16.9922,3.76425 -23.3707,1.6832 z m 83.95096,-0.49529 c -10.98992,-3.79552 -17.17275,-13.68007 -17.17275,-27.45424 0,-12.85345 5.06235,-22.03524 14.72266,-26.70307 5.88656,-2.84437 17.70098,-3.20605 23.4169,-0.71686 5.64147,2.45675 11.39666,8.27556 13.88418,14.03766 3.16528,7.33203 3.16808,19.14478 0.006,26.46869 -5.708,13.22188 -20.50965,19.32297 -34.85727,14.36782 z m 17.5287,-10.05439 c 5.10864,-3.11492 6.75855,-7.26173 6.77995,-17.04048 0.0221,-10.09207 -2.11853,-15.26353 -7.51629,-18.15837 -7.05826,-3.78539 -15.06719,-1.2424 -19.40594,6.16177 -2.90114,4.95085 -2.90053,17.84771 10e-4,23.40497 3.69586,7.07837 13.34434,9.77639 20.14117,5.63211 z M 541.05209,138.6906 v -28 h 9.28627 9.28627 l 4.96373,17.58175 c 2.73005,9.66997 5.39234,17.57047 5.9162,17.55666 0.52386,-0.0138 3.16335,-7.92559 5.86555,-17.58175 l 4.91307,-17.55666 h 9.38446 9.38445 v 28 28 h -6 -6 l -0.0304,-20.75 c -0.0177,-12.05996 -0.38976,-20.1218 -0.88846,-19.25 -0.47192,0.825 -3.48934,10.1625 -6.70536,20.75 l -5.84732,19.25 h -4.22122 -4.22123 l -3.97438,-12.75 c -2.18591,-7.0125 -5.01776,-16.23329 -6.293,-20.49064 -1.27524,-4.25735 -2.65612,-7.74485 -3.06862,-7.75 -0.41251,-0.005 -0.75001,9.21564 -0.75001,20.49064 v 20.5 h -5.5 -5.5 z m 72,0 v -28 h 6 6 v 28 28 h -6 -6 z m 40,5 v -23 h -9 -9 v -5 -5 h 24 24 v 5 5 h -9 -9 v 23 23 h -6 -6 z m 95,-5 v -28 h 6 6 v 28 28 h -6 -6 z m -208,-85.999995 v -4 h 158 158 v 4 4 h -158 -158 z"
       id="path553"
       inkscape:export-filename="logo_mm.svg"
       inkscape:export-xdpi="96"
       inkscape:export-ydpi="96" />
  </g>
</svg>
