<svg width="58" height="21" viewBox="0 0 58 21" fill="none" xmlns="http://www.w3.org/2000/svg">
<path d="M39.135 9.51967H38.2263V6.51159H38.2036L37.2856 9.51967H36.5907L35.6709 6.51159H35.6484V9.51967H34.7629V5.34243H36.1819L36.9403 8.04196H36.9626L37.7217 5.34243H39.1357L39.135 9.51967Z" fill="white"/>
<path d="M40.0087 5.34243H40.9764V9.51967H40.0087V5.34243Z" fill="white"/>
<path d="M43.8715 6.17087V9.51967H42.9037V6.17087H41.6141V5.34243H45.1611V6.17087H43.8715Z" fill="white"/>
<path d="M48.0536 6.59496C47.992 6.20011 47.722 5.98003 47.2743 5.98003C46.8789 5.98003 46.6273 6.1767 46.6273 6.44431C46.6273 6.71192 46.8512 6.79235 47.1543 6.86768L47.8085 7.03145C48.4411 7.19598 49.1093 7.36927 49.1093 8.33735C49.1093 9.22572 48.3239 9.61326 47.3958 9.61326C46.3992 9.61326 45.6509 9.13435 45.5457 8.22402L46.5016 8.12677C46.5531 8.66565 46.9377 8.87185 47.4066 8.87185C47.819 8.87185 48.1242 8.69344 48.1242 8.37609C48.1242 8.05877 47.8878 7.97029 47.4852 7.86427L46.8613 7.69902C46.29 7.54547 45.6729 7.34808 45.6729 6.50427C45.6729 5.68754 46.383 5.25105 47.3079 5.25105C48.2158 5.25105 48.8343 5.70072 48.9878 6.53134L48.0536 6.59496Z" fill="white"/>
<path d="M49.7956 5.34243H50.763V9.51967H49.7956V5.34243Z" fill="white"/>
<path d="M55.5402 7.43141C55.5402 8.81409 54.6932 9.61326 53.5045 9.61326C52.3161 9.61326 51.4691 8.81409 51.4691 7.43141C51.4691 6.04877 52.3168 5.24884 53.5045 5.24884C54.6925 5.24884 55.5402 6.04801 55.5402 7.43141ZM54.5551 7.43141C54.5551 6.45163 54.0941 6.04217 53.5073 6.04217C52.9209 6.04217 52.4592 6.44946 52.4592 7.43141C52.4592 8.41341 52.9209 8.82065 53.5073 8.82065C54.0941 8.82065 54.5551 8.41047 54.5551 7.43141Z" fill="white"/>
<path d="M39.2006 16.305H38.28V13.297H38.257L37.3256 16.305H36.6202L35.6862 13.297H35.6629V16.305H34.7687V12.1278H36.2075L36.976 14.8273H36.999L37.7675 12.1278H39.2006V16.305Z" fill="white"/>
<path d="M44.0416 14.216C44.0416 15.5995 43.1827 16.3986 41.981 16.3986C40.7793 16.3986 39.92 15.5995 39.92 14.216C39.92 12.8326 40.7793 12.0342 41.981 12.0342C43.1827 12.0342 44.0416 12.8334 44.0416 14.216ZM43.0432 14.216C43.0432 13.237 42.5757 12.8268 41.981 12.8268C41.3866 12.8268 40.9184 13.2348 40.9184 14.216C40.9184 15.1973 41.3866 15.6053 41.981 15.6053C42.5757 15.6053 43.0432 15.1958 43.0432 14.216Z" fill="white"/>
<path d="M46.7196 12.9562V16.305H45.7389V12.9562H44.4305V12.1278H48.0251V12.9562H46.7196Z" fill="white"/>
<path d="M52.2891 14.7659C52.2891 15.8707 51.5091 16.3986 50.4826 16.3986C49.4561 16.3986 48.6761 15.8707 48.6761 14.7659V12.1278H49.6568V14.6738C49.6568 15.3165 49.9473 15.598 50.4826 15.598C51.0175 15.598 51.3083 15.3165 51.3083 14.6738V12.1278H52.2891V14.7659Z" fill="white"/>
<path d="M57.7778 0.82373H34.68V1.5359H57.7778V0.82373Z" fill="white"/>
<path d="M57.7778 20.1116H34.68V20.8237H57.7778V20.1116Z" fill="white"/>
<path d="M24.8621 0.82373L21.1174 13.7503H21.0055L17.2608 0.82373H10.2497V12.0013L7.01176 0.82373H0V20.8237H4.3728V6.42094H4.48475L9.02332 20.8237H14.6218V6.42094H14.7338L19.2723 20.8237H22.7074L27.2459 6.42094H27.3586V20.8237H31.8426L31.8433 0.82373H24.8621Z" fill="white"/>
</svg>
